#!OML:ASF E:\acrobat2\Project_11_07_03\Capture day 1\Session 1\Acrobat.ASF
:FULLY-SPECIFIED
:DEGREES
613
root 10.7755 6.03394 11.6556 -88.3958 3.89646 178.753
lowerback -4.84864 -3.35838 5.06946
upperback 0.42867 -4.8194 0.79244
thorax 2.81023 -2.33625 -2.34625
lowerneck 4.20478 -14.7098 -10.8766
upperneck -28.8574 -15.5057 29.8546
head -5.44399 -8.34757 12.3951
rclavicle -9.54166e-015 -5.10628e-015
rhumerus 31.7418 -33.7622 -32.2897
rradius 120.107
rwrist -23.1375
rhand -19.4796 -42.4277
rfingers 7.12502
rthumb 6.84222 -72.2972
lclavicle -9.54166e-015 -5.10628e-015
lhumerus 16.9531 48.3299 2.03833
lradius 108.375
lwrist 34.0938
lhand -5.18184 -25.321
lfingers 7.12502
lthumb 20.6187 3.60388
rfemur 1.43304 15.676 -8.78951
rtibia -1.39149e-014
rfoot 31.4783 -24.0326
rtoes 28.4071
lfemur -11.5468 -21.3976 3.04985
ltibia 18.5317
lfoot 37.4544 11.3487
ltoes 18.3574
614
root 10.7747 6.03411 11.6557 -88.4074 3.93273 178.737
lowerback -4.83683 -3.36612 5.04191
upperback 0.438878 -4.82729 0.77847
thorax 2.81458 -2.34021 -2.34545
lowerneck 4.2406 -14.6853 -10.9102
upperneck -28.8926 -15.4632 29.8935
head -5.46158 -8.32864 12.4265
rclavicle 6.36111e-015 2.77926e-014
rhumerus 31.7583 -33.7928 -32.2917
rradius 120.098
rwrist -23.1607
rhand -19.454 -42.4381
rfingers 7.12502
rthumb 6.86687 -72.3067
lclavicle 6.36111e-015 2.77926e-014
lhumerus 16.9342 48.3568 2.01312
lradius 108.374
lwrist 34.0953
lhand -5.12867 -25.4719
lfingers 7.12502
lthumb 20.6698 3.44744
rfemur 1.45595 15.6664 -8.82541
rtibia -4.77083e-015
rfoot 31.377 -24.1053
rtoes 28.604
lfemur -11.5541 -21.4046 3.0042
ltibia 18.5439
lfoot 37.4579 11.3357
ltoes 18.1002
615
root 10.7738 6.03434 11.6558 -88.4198 3.96339 178.723
lowerback -4.82317 -3.37438 5.01984
upperback 0.449168 -4.83617 0.766767
thorax 2.81766 -2.34466 -2.34527
lowerneck 4.27618 -14.6566 -10.9494
upperneck -28.9226 -15.4151 29.9367
head -5.4776 -8.30712 12.4603
rclavicle 3.02153e-014 -2.33199e-014
rhumerus 31.7832 -33.814 -32.2951
rradius 120.085
rwrist -23.1737
rhand -19.4298 -42.4747
rfingers 7.12502
rthumb 6.89022 -72.3426
lclavicle 3.02153e-014 -2.33199e-014
lhumerus 16.9267 48.385 1.99945
lradius 108.371
lwrist 34.0987
lhand -5.05317 -25.5884
lfingers 7.12502
lthumb 20.7423 3.32304
rfemur 1.47802 15.6589 -8.8506
rtibia -1.90833e-014
rfoot 31.3168 -24.1192
rtoes 28.7337
lfemur -11.5601 -21.4148 2.96447
ltibia 18.5608
lfoot 37.4463 11.3423
ltoes 17.8827
616
root 10.7725 6.03452 11.656 -88.4275 3.98699 178.714
lowerback -4.81405 -3.38107 5.00623
upperback 0.457754 -4.84377 0.757869
thorax 2.82119 -2.34837 -2.34705
lowerneck 4.2974 -14.6288 -10.9832
upperneck -28.9363 -15.3713 29.9673
head -5.48736 -8.28649 12.485
rclavicle -9.54166e-015 2.32951e-014
rhumerus 31.8152 -33.8267 -32.2981
rradius 120.068
rwrist -23.1796
rhand -19.4168 -42.5373
rfingers 7.12502
rthumb 6.90282 -72.4048
lclavicle -9.54166e-015 2.32951e-014
lhumerus 16.9335 48.4141 1.99584
lradius 108.365
lwrist 34.113
lhand -4.95472 -25.6619
lfingers 7.12502
lthumb 20.8369 3.23916
rfemur 1.49226 15.654 -8.86662
rtibia -8.74653e-015
rfoot 31.3271 -24.0731
rtoes 28.731
lfemur -11.5647 -21.4327 2.9338
ltibia 18.5757
lfoot 37.4275 11.3897
ltoes 17.9045
617
root 10.7712 6.03461 11.6561 -88.4322 4.00502 178.709
lowerback -4.80772 -3.38473 5.00013
upperback 0.464557 -4.84795 0.751101
thorax 2.82427 -2.35031 -2.35071
lowerneck 4.29942 -14.6083 -11.0074
upperneck -28.9319 -15.3417 29.9811
head -5.48827 -8.27131 12.4965
rclavicle -4.13472e-014 4.04154e-014
rhumerus 31.8442 -33.8359 -32.2962
rradius 120.052
rwrist -23.1818
rhand -19.4211 -42.6092
rfingers 7.12502
rthumb 6.89866 -72.4768
lclavicle -4.13472e-014 4.04154e-014
lhumerus 16.955 48.441 2.00255
lradius 108.357
lwrist 34.1331
lhand -4.86316 -25.6745
lfingers 7.12502
lthumb 20.9249 3.2169
rfemur 1.50047 15.6514 -8.87548
rtibia 2.70347e-014
rfoot 31.4033 -23.9709
rtoes 28.5938
lfemur -11.564 -21.4648 2.91045
ltibia 18.5835
lfoot 37.4056 11.473
ltoes 18.203
618
root 10.7699 6.03474 11.6562 -88.4347 4.02697 178.705
lowerback -4.80242 -3.38598 4.99078
upperback 0.469536 -4.84866 0.743856
thorax 2.82653 -2.35061 -2.35287
lowerneck 4.28757 -14.5981 -11.0156
upperneck -28.9185 -15.3294 29.9739
head -5.48469 -8.26335 12.4937
rclavicle 6.20208e-014 -9.0944e-015
rhumerus 31.8623 -33.8417 -32.2884
rradius 120.041
rwrist -23.1793
rhand -19.4385 -42.6685
rfingers 7.12502
rthumb 6.88189 -72.5366
lclavicle 6.20208e-014 -9.0944e-015
lhumerus 16.9887 48.4627 2.02358
lradius 108.348
lwrist 34.1435
lhand -4.83795 -25.6159
lfingers 7.12502
lthumb 20.9491 3.27277
rfemur 1.50526 15.6483 -8.89118
rtibia 3.97569e-015
rfoot 31.482 -23.876
rtoes 28.4301
lfemur -11.5594 -21.5084 2.88435
ltibia 18.5825
lfoot 37.3675 11.5582
ltoes 18.5556
